<svg width="52" height="15" viewBox="0 0 52 15" fill="none" xmlns="http://www.w3.org/2000/svg">
<path d="M1.90002 6.4V14H4.70002V6.4H8.20003V4H4.70002C4.70002 3.48 4.84002 3.1 5.16002 2.86C5.46002 2.62 5.94002 2.5 6.60002 2.5C6.86002 2.5 7.14002 2.52 7.44002 2.54C7.72002 2.58 8.02002 2.62 8.30002 2.7V0.2C8.06002 0.120001 7.74002 0.0800002 7.38002 0.0400007C7.00002 0.0199997 6.64002 0 6.30002 0C5.54002 0 4.90002 0.0999999 4.34002 0.28C3.78002 0.48 3.34002 0.74 2.98002 1.06C2.62002 1.4 2.34002 1.8 2.16002 2.26C1.98002 2.74 1.90002 3.24 1.90002 3.8V4H0.400024V6.4H1.90002Z" fill="#F51B1B"/>
<path d="M9.19846 4V14H11.9985V7.6C12.7985 7.16 13.5185 6.82 14.1585 6.62C14.7985 6.42 15.4585 6.3 16.1385 6.3C16.3585 6.3 16.5785 6.32 16.7785 6.36C16.9785 6.4 17.1585 6.42 17.2985 6.46V4C17.0585 3.94 16.8385 3.9 16.6385 3.86C16.4185 3.82 16.1985 3.8 15.9985 3.8C15.3985 3.8 14.7385 3.9 14.0585 4.1C13.3785 4.3 12.6585 4.62 11.8985 5.04V4H9.19846Z" fill="#F51B1B"/>
<path d="M17.4024 9C17.4024 9.8 17.5424 10.52 17.8224 11.16C18.1024 11.8 18.5024 12.36 19.0224 12.8C19.5424 13.26 20.1824 13.6 20.9424 13.84C21.7024 14.08 22.5424 14.2 23.5024 14.2C24.4424 14.2 25.2824 14.08 26.0424 13.84C26.8024 13.6 27.4424 13.26 27.9624 12.8C28.4824 12.36 28.9024 11.8 29.1824 11.16C29.4624 10.52 29.6024 9.8 29.6024 9C29.6024 8.2 29.4624 7.48 29.1824 6.84C28.9024 6.2 28.4824 5.66 27.9624 5.2C27.4424 4.76 26.8024 4.4 26.0424 4.16C25.2824 3.92 24.4424 3.8 23.5024 3.8C22.5424 3.8 21.7024 3.92 20.9424 4.16C20.1824 4.4 19.5424 4.76 19.0224 5.2C18.5024 5.66 18.1024 6.2 17.8224 6.84C17.5424 7.48 17.4024 8.2 17.4024 9ZM20.3024 9C20.3024 7.2 21.3624 6.3 23.5024 6.3C25.6224 6.3 26.7024 7.2 26.7024 9C26.7024 10.8 25.6224 11.7 23.5024 11.7C21.3624 11.7 20.3024 10.8 20.3024 9Z" fill="#F51B1B"/>
<path d="M31.211 4V14H34.011V7.4C34.691 7.04 35.331 6.78 35.931 6.58C36.511 6.4 36.971 6.3 37.331 6.3C38.051 6.3 38.611 6.52 39.011 6.92C39.411 7.32 39.611 7.88 39.611 8.6V14H42.411V7.6C42.411 7.04 42.311 6.52 42.111 6.04C41.911 5.58 41.611 5.18 41.251 4.84C40.871 4.52 40.411 4.26 39.891 4.08C39.371 3.9 38.791 3.8 38.151 3.8C37.851 3.8 37.571 3.82 37.291 3.86C37.011 3.9 36.691 3.94 36.371 4.02C36.051 4.1 35.691 4.22 35.291 4.34C34.891 4.48 34.431 4.64 33.911 4.84V4H31.211Z" fill="#F51B1B"/>
<path d="M45.3071 6.4V10.2C45.3071 11.44 45.6471 12.4 46.3671 13.12C47.0871 13.84 48.1871 14.2 49.7071 14.2C49.8671 14.2 50.0671 14.2 50.2671 14.18C50.4671 14.18 50.6671 14.16 50.8671 14.14C51.0671 14.12 51.2471 14.1 51.4271 14.06C51.6071 14.02 51.7671 13.98 51.9071 13.92V11.42C51.5871 11.54 51.2671 11.6 50.9271 11.64C50.5671 11.68 50.2671 11.7 50.0071 11.7C49.3471 11.7 48.8671 11.58 48.5671 11.34C48.2471 11.1 48.1071 10.64 48.1071 10V6.4H51.8071V4H48.1071V1.1H45.3071V4H43.5071V6.4H45.3071Z" fill="#F51B1B"/>
</svg>
